<?xml version="1.0" encoding="utf-8"?>
<!-- Generator: Adobe Illustrator 25.2.3, SVG Export Plug-In . SVG Version: 6.00 Build 0)  -->
<svg version="1.1" xmlns="http://www.w3.org/2000/svg" xmlns:xlink="http://www.w3.org/1999/xlink" x="0px" y="0px"
	 viewBox="0 0 24 24" style="enable-background:new 0 0 24 24;" xml:space="preserve">
<style type="text/css">
	.st0{fill:none;}
	.st1{clip-path:url(#SVGID_2_);}
	.st2{fill:none;stroke:#000000;stroke-width:0.25;stroke-miterlimit:10;}
	.st3{opacity:0.4;}
	.st4{clip-path:url(#SVGID_4_);fill:none;stroke:#000000;stroke-width:0.25;stroke-miterlimit:10;}
	.st5{clip-path:url(#SVGID_4_);}
	.st6{display:none;}
	.st7{display:inline;opacity:0.2;}
	.st8{display:inline;fill:none;stroke:#231F20;stroke-width:2;stroke-miterlimit:10;}
	.st9{display:inline;fill:#231F20;}
	.st10{display:inline;fill:#FFFFFF;}
	.st11{fill:#F2F2F2;}
	.st12{display:inline;}
	.st13{fill:#FFFFFF;}
	.st14{display:inline;fill:#F2F2F2;}
</style>
<symbol  id="material_x5F_system_x5F_icon_x5F_border" viewBox="0 -48 48 48">
	<rect y="-48" class="st0" width="48" height="48"/>
</symbol>
<symbol  id="material_x5F_system_x5F_icon_x5F_grid" viewBox="0 -48 48 48">
	<g>
		<defs>
			<rect id="SVGID_1_" x="0" y="-48" width="48" height="48"/>
		</defs>
		<clipPath id="SVGID_2_">
			<use xlink:href="#SVGID_1_"  style="overflow:visible;"/>
		</clipPath>
		<g class="st1">
			<g>
				<line class="st2" x1="2" y1="-48" x2="2" y2="0"/>
				<line class="st2" x1="4" y1="-48" x2="4" y2="0"/>
				<line class="st2" x1="6" y1="-48" x2="6" y2="0"/>
				<line class="st2" x1="8" y1="-48" x2="8" y2="0"/>
				<line class="st2" x1="10" y1="-48" x2="10" y2="0"/>
				<line class="st2" x1="12" y1="-48" x2="12" y2="0"/>
				<line class="st2" x1="14" y1="-48" x2="14" y2="0"/>
				<line class="st2" x1="16" y1="-48" x2="16" y2="0"/>
				<line class="st2" x1="18" y1="-48" x2="18" y2="0"/>
				<line class="st2" x1="20" y1="-48" x2="20" y2="0"/>
				<line class="st2" x1="22" y1="-48" x2="22" y2="0"/>
				<line class="st2" x1="24" y1="-48" x2="24" y2="0"/>
				<line class="st2" x1="26" y1="-48" x2="26" y2="0"/>
				<line class="st2" x1="28" y1="-48" x2="28" y2="0"/>
				<line class="st2" x1="30" y1="-48" x2="30" y2="0"/>
				<line class="st2" x1="32" y1="-48" x2="32" y2="0"/>
				<line class="st2" x1="34" y1="-48" x2="34" y2="0"/>
				<line class="st2" x1="36" y1="-48" x2="36" y2="0"/>
				<line class="st2" x1="38" y1="-48" x2="38" y2="0"/>
				<line class="st2" x1="40" y1="-48" x2="40" y2="0"/>
				<line class="st2" x1="42" y1="-48" x2="42" y2="0"/>
				<line class="st2" x1="44" y1="-48" x2="44" y2="0"/>
				<line class="st2" x1="46" y1="-48" x2="46" y2="0"/>
			</g>
			<g>
				<line class="st2" x1="0" y1="-2" x2="48" y2="-2"/>
				<line class="st2" x1="0" y1="-4" x2="48" y2="-4"/>
				<line class="st2" x1="0" y1="-6" x2="48" y2="-6"/>
				<line class="st2" x1="0" y1="-8" x2="48" y2="-8"/>
				<line class="st2" x1="0" y1="-10" x2="48" y2="-10"/>
				<line class="st2" x1="0" y1="-12" x2="48" y2="-12"/>
				<line class="st2" x1="0" y1="-14" x2="48" y2="-14"/>
				<line class="st2" x1="0" y1="-16" x2="48" y2="-16"/>
				<line class="st2" x1="0" y1="-18" x2="48" y2="-18"/>
				<line class="st2" x1="0" y1="-20" x2="48" y2="-20"/>
				<line class="st2" x1="0" y1="-22" x2="48" y2="-22"/>
				<line class="st2" x1="0" y1="-24" x2="48" y2="-24"/>
				<line class="st2" x1="0" y1="-26" x2="48" y2="-26"/>
				<line class="st2" x1="0" y1="-28" x2="48" y2="-28"/>
				<line class="st2" x1="0" y1="-30" x2="48" y2="-30"/>
				<line class="st2" x1="0" y1="-32" x2="48" y2="-32"/>
				<line class="st2" x1="0" y1="-34" x2="48" y2="-34"/>
				<line class="st2" x1="0" y1="-36" x2="48" y2="-36"/>
				<line class="st2" x1="0" y1="-38" x2="48" y2="-38"/>
				<line class="st2" x1="0" y1="-40" x2="48" y2="-40"/>
				<line class="st2" x1="0" y1="-42" x2="48" y2="-42"/>
				<line class="st2" x1="0" y1="-44" x2="48" y2="-44"/>
				<line class="st2" x1="0" y1="-46" x2="48" y2="-46"/>
			</g>
			<g>
				<path d="M47.75-0.25v-47.5H0.25v47.5H47.75 M48,0H0v-48h48V0L48,0z"/>
			</g>
		</g>
	</g>
</symbol>
<symbol  id="material_x5F_system_x5F_icon_x5F_keylines" viewBox="0 -48 48 48">
	<g class="st3">
		<defs>
			<rect id="SVGID_3_" x="0" y="-48" class="st3" width="48" height="48"/>
		</defs>
		<clipPath id="SVGID_4_">
			<use xlink:href="#SVGID_3_"  style="overflow:visible;"/>
		</clipPath>
		<line class="st4" x1="24" y1="0" x2="24" y2="-48"/>
		<line class="st4" x1="48" y1="-24" x2="0" y2="-24"/>
		<line class="st4" x1="48" y1="-16" x2="0" y2="-16"/>
		<line class="st4" x1="48" y1="-32" x2="0" y2="-32"/>
		<line class="st4" x1="32" y1="-48" x2="32" y2="0"/>
		<line class="st4" x1="16" y1="-48" x2="16" y2="0"/>
		<line class="st4" x1="47.75" y1="-0.25" x2="0.25" y2="-47.75"/>
		<line class="st4" x1="0.25" y1="-0.25" x2="47.75" y2="-47.75"/>
		<path class="st4" d="M24-14c-5.52,0-10-4.48-10-10c0-5.52,4.48-10,10-10c5.52,0,10,4.48,10,10C34-18.48,29.52-14,24-14z"/>
		<path class="st4" d="M24-4C12.95-4,4-12.95,4-24c0-11.05,8.95-20,20-20c11.05,0,20,8.95,20,20C44-12.95,35.05-4,24-4z"/>
		<path class="st4" d="M38-6H10c-2.21,0-4-1.79-4-4v-28c0-2.21,1.79-4,4-4h28c2.21,0,4,1.79,4,4v28C42-7.79,40.21-6,38-6z"/>
		<path class="st4" d="M40-8H8c-2.21,0-4-1.79-4-4v-24c0-2.21,1.79-4,4-4h32c2.21,0,4,1.79,4,4l0,24C44-9.79,42.21-8,40-8z"/>
		<path class="st4" d="M40-40v32c0,2.21-1.79,4-4,4H12C9.79-4,8-5.79,8-8v-32c0-2.21,1.79-4,4-4h24C38.21-44,40-42.21,40-40z"/>
		<g class="st5">
			<path d="M47.75-0.25v-47.5H0.25v47.5H47.75 M48,0H0v-48h48V0L48,0z"/>
		</g>
	</g>
</symbol>
<g class="st6">
	<circle id="circle" class="st7" cx="12" cy="12" r="10"/>
	<path id="Rectangle" class="st7" d="M19,21H5c-1.1,0-2-0.9-2-2V5c0-1.1,0.9-2,2-2h14c1.1,0,2,0.9,2,2v14C21,20.1,20.1,21,19,21z"/>
	<path id="Vertical_Rectangle" class="st7" d="M6,22h12c1.1,0,2-0.9,2-2V4c0-1.1-0.9-2-2-2H6C4.9,2,4,2.9,4,4v16C4,21.1,4.9,22,6,22
		z"/>
	<path id="Horizontal_Rectangle" class="st7" d="M22,18V6c0-1.1-0.9-2-2-2H4C2.9,4,2,4.9,2,6v12c0,1.1,0.9,2,2,2h16
		C21.1,20,22,19.1,22,18z"/>
</g>
<g id="border" class="st6">
	
		<use xlink:href="#material_x5F_system_x5F_icon_x5F_border"  width="48" height="48" id="XMLID_2_" y="-48" transform="matrix(0.5 0 0 -0.5 -1.144415e-04 -8.010902e-05)" style="display:inline;overflow:visible;"/>
</g>
<g id="grid" class="st6">
	
		<use xlink:href="#material_x5F_system_x5F_icon_x5F_grid"  width="48" height="48" id="XMLID_1_" x="0" y="-48" transform="matrix(0.5 0 0 -0.5 -1.144415e-04 -8.010902e-05)" style="display:inline;overflow:visible;opacity:0.15;"/>
</g>
<g id="keylines" class="st6">
	
		<use xlink:href="#material_x5F_system_x5F_icon_x5F_keylines"  width="48" height="48" id="XMLID_3_" x="0" y="-48" transform="matrix(0.5 0 0 -0.5 -1.144415e-04 -8.010902e-05)" style="display:inline;overflow:visible;"/>
</g>
<g id="검색" class="st6">
	<circle class="st8" cx="10" cy="10" r="5.75"/>
	<line class="st8" x1="14.5" y1="14.5" x2="21.5" y2="21.5"/>
</g>
<g id="제품" class="st6">
	<path class="st8" d="M13.92,20.19h-3.83C7.28,20.19,5,17.91,5,15.1V8.81h14v6.29C19,17.91,16.72,20.19,13.92,20.19z"/>
	<path class="st8" d="M16.98,8.81C16.88,6.14,14.7,4,12,4S7.12,6.14,7.02,8.81H5v6.29c0,2.81,2.28,5.08,5.08,5.08h3.83
		c2.81,0,5.08-2.28,5.08-5.08V8.81H16.98z"/>
</g>
<g id="로그인" class="st6">
	<circle class="st9" cx="12" cy="12" r="10"/>
	<circle class="st10" cx="12" cy="8" r="3"/>
	<path class="st10" d="M19,16c0,0-3.13,4-7,4s-7-4-7-4s3.13-3,7-3S19,16,19,16z"/>
</g>
<g id="페이스북">
	<path class="st11" d="M12,2C6.48,2,2,6.48,2,12c0,5.52,4.48,10,10,10s10-4.48,10-10C22,6.48,17.52,2,12,2z M15.64,7.32l-1.32,0
		c-1.03,0-1.23,0.49-1.23,1.21v1.59h2.46l-0.32,2.49h-2.14V19h-2.57v-6.39H8.36v-2.49h2.15V8.29c0-2.13,1.3-3.29,3.2-3.29
		c0.91,0,1.69,0.07,1.92,0.1V7.32z"/>
</g>
<g id="인스타" class="st6">
	<g class="st12">
		<path class="st11" d="M12,10.01c-1.11,0-2.02,0.9-2.02,2.02c0,1.11,0.9,2.02,2.02,2.02s2.02-0.9,2.02-2.02
			C14.02,10.92,13.11,10.01,12,10.01z"/>
		<path class="st11" d="M14.6,7.13H9.4c-1.27,0-2.3,1.03-2.3,2.3v5.19c0,1.27,1.03,2.3,2.3,2.3h5.19c1.27,0,2.3-1.03,2.3-2.3V9.43
			C16.89,8.16,15.87,7.13,14.6,7.13z M12,15.14c-1.72,0-3.11-1.39-3.11-3.11S10.28,8.92,12,8.92s3.11,1.39,3.11,3.11
			S13.72,15.14,12,15.14z M15.22,9.52c-0.4,0-0.73-0.32-0.73-0.73c0-0.4,0.32-0.73,0.73-0.73c0.4,0,0.73,0.32,0.73,0.73
			C15.94,9.2,15.62,9.52,15.22,9.52z"/>
		<path class="st11" d="M12,2C6.48,2,2,6.48,2,12c0,5.52,4.48,10,10,10s10-4.48,10-10C22,6.48,17.52,2,12,2z M18,14.54
			c0,1.91-1.55,3.46-3.46,3.46H9.46C7.55,18,6,16.45,6,14.54V9.46C6,7.55,7.55,6,9.46,6h5.07C16.45,6,18,7.55,18,9.46V14.54z"/>
	</g>
</g>
<g id="유튜브" class="st6">
	<g class="st12">
		<path class="st13" d="M12,2C6.48,2,2,6.48,2,12c0,5.52,4.48,10,10,10c5.52,0,10-4.48,10-10C22,6.48,17.52,2,12,2z M18.02,17.07
			c-1.2,0.32-6.02,0.32-6.02,0.32s-4.82,0-6.02-0.32c-0.66-0.18-1.18-0.7-1.36-1.36C4.3,14.51,4.3,12,4.3,12s0-2.51,0.32-3.71
			c0.18-0.66,0.7-1.18,1.36-1.36C7.18,6.61,12,6.61,12,6.61s4.82,0,6.02,0.32c0.66,0.18,1.18,0.7,1.36,1.36
			C19.7,9.49,19.7,12,19.7,12s0,2.51-0.32,3.71C19.2,16.37,18.68,16.89,18.02,17.07z"/>
		<polygon class="st13" points="10.46,14.31 14.46,12 10.46,9.69 		"/>
	</g>
</g>
<g id="카톡플친" class="st6">
	<path class="st14" d="M22,12c0-5.52-4.48-10-10-10S2,6.48,2,12c0,5.52,4.48,10,10,10S22,17.52,22,12z M8.85,13.84H6.68
		c-0.35,0-0.64-0.1-0.87-0.29c-0.23-0.19-0.34-0.45-0.34-0.79c0-0.33,0.11-0.58,0.34-0.77c0.24-0.2,0.52-0.29,0.86-0.29h2.17V13.84z
		 M11.9,16.43c0,0.39-0.11,0.73-0.33,1c-0.22,0.26-0.51,0.39-0.9,0.39c-0.39,0-0.69-0.13-0.91-0.4c-0.23-0.27-0.34-0.6-0.34-0.99
		V7.79c0-0.48,0.13-0.85,0.4-1.12c0.27-0.27,0.65-0.4,1.13-0.4h2.7c1.27,0,2.24,0.32,2.89,0.94c0.24,0.23,0.45,0.49,0.63,0.8
		c0.18,0.3,0.32,0.63,0.42,0.96c0.09,0.34,0.14,0.68,0.14,1.01c0,1.1-0.29,2-0.86,2.68c-0.65,0.8-1.62,1.2-2.86,1.2h-1.47V11.7h0.81
		c0.6,0,1.05-0.16,1.38-0.48c0.3-0.3,0.45-0.72,0.45-1.24c-0.03-0.48-0.2-0.86-0.51-1.14c-0.31-0.28-0.71-0.42-1.18-0.42H11.9V16.43
		z"/>
</g>
<g id="네이버포스팅" class="st6">
	<g class="st12">
		<path class="st11" d="M14.95,10.34c-0.31,0.11-0.33,0.59-0.05,0.74c0.25,0.14,0.61-0.04,0.59-0.34
			C15.53,10.45,15.21,10.21,14.95,10.34z"/>
		<path class="st11" d="M12.56,10.34c-0.32,0.09-0.37,0.6-0.07,0.75c0.25,0.15,0.62-0.05,0.59-0.35
			C13.12,10.47,12.81,10.25,12.56,10.34z"/>
		<path class="st11" d="M8.91,10.35c-0.31,0.11-0.33,0.61-0.02,0.75c0.25,0.13,0.6-0.07,0.57-0.36C9.49,10.45,9.17,10.23,8.91,10.35
			z"/>
		<path class="st11" d="M15.18,6.86c-2.12,0-4.24,0-6.36,0C7.8,6.85,6.87,7.74,6.83,8.76c0,1.08,0,2.16,0,3.23
			c0.02,0.99,0.88,1.88,1.88,1.93c0.83,0.02,1.65,0,2.48,0.01c0.19,0.41,0.4,0.81,0.59,1.21c0.05,0.1,0.09,0.23,0.22,0.26
			c0.13-0.02,0.17-0.16,0.22-0.26c0.2-0.41,0.4-0.81,0.6-1.22c0.82-0.01,1.65,0.01,2.48-0.01c0.99-0.06,1.85-0.94,1.88-1.93
			c0-0.86,0-1.72,0-2.58c-0.01-0.38,0.04-0.77-0.09-1.13C16.84,7.47,16.04,6.86,15.18,6.86z M9.77,11.5
			c-0.3,0.26-0.82,0.28-1.08-0.05c0,0.05,0,0.14,0,0.19c-0.21,0-0.42,0-0.63,0c0.01-0.88-0.01-1.77,0.01-2.65
			c0.21,0.01,0.41,0,0.61,0.01c-0.01,0.33,0,0.66-0.01,0.99c0.3-0.3,0.83-0.29,1.13,0.01C10.22,10.39,10.21,11.14,9.77,11.5z
			 M11.21,11.64c-0.21,0-0.41,0-0.61,0c-0.01-0.56,0.01-1.12-0.01-1.68c0-0.18-0.1-0.37-0.28-0.42c0-0.2,0-0.41,0-0.61
			c0.19,0.01,0.38,0.05,0.53,0.16c0.27,0.2,0.38,0.55,0.38,0.87C11.21,10.52,11.22,11.08,11.21,11.64z M13.39,11.48
			c-0.52,0.39-1.44,0.27-1.7-0.38c-0.21-0.51,0.08-1.15,0.63-1.28c0.39-0.11,0.85-0.05,1.14,0.24
			C13.87,10.42,13.84,11.15,13.39,11.48z M16.09,11.58c0,0.32-0.11,0.65-0.38,0.85c-0.23,0.17-0.53,0.19-0.8,0.18
			c0-0.19,0-0.38,0-0.57c0.15-0.01,0.31,0,0.43-0.11c0.13-0.12,0.13-0.31,0.14-0.48c-0.31,0.29-0.83,0.3-1.14,0.01
			c-0.43-0.41-0.37-1.21,0.12-1.55c0.3-0.21,0.76-0.21,1.01,0.09c0-0.04,0-0.13,0-0.17c0.21,0,0.41,0,0.62,0
			C16.09,10.41,16.1,10.99,16.09,11.58z"/>
		<path class="st11" d="M12,2C6.48,2,2,6.48,2,12c0,5.52,4.48,10,10,10s10-4.48,10-10C22,6.48,17.52,2,12,2z M15.89,18
			c-2.62,0-5.23,0-7.85,0C6.96,17.96,6,16.98,6,15.89c0-2.42,0-4.84,0.01-7.26C6,8.36,6,8.07,6.03,7.79
			c0.14-0.83,0.81-1.54,1.63-1.74c0.38-0.08,0.77-0.05,1.16-0.05c2.38,0,4.76,0,7.14,0c1.08,0.02,2.04,1,2.03,2.09
			C18,10.69,18,13.29,18,15.89C18,17,17.01,18,15.89,18z"/>
	</g>
</g>
</svg>
